<?xml version="1.0" standalone="no"?>
<!DOCTYPE svg PUBLIC "-//W3C//DTD SVG 20010904//EN"
 "http://www.w3.org/TR/2001/REC-SVG-20010904/DTD/svg10.dtd">
<svg version="1.0" xmlns="http://www.w3.org/2000/svg"
 width="1280.000000pt" height="1280.000000pt" viewBox="0 0 1280.000000 1280.000000"
 preserveAspectRatio="xMidYMid meet">
<metadata>
Created by potrace 1.15, written by Peter Selinger 2001-2017
</metadata>
<g transform="translate(0.000000,1280.000000) scale(0.100000,-0.100000)"
fill="#FFDC83" stroke="none">
<path d="M6790 11796 c0 -2 8 -10 18 -17 15 -13 16 -12 3 4 -13 16 -21 21 -21
13z"/>
<path d="M6850 11712 c103 -180 169 -449 155 -627 -7 -87 -21 -172 -36 -222
l-11 -33 -433 0 -433 0 -6 53 c-10 78 -57 205 -100 270 -113 170 -297 257
-515 244 -53 -3 -129 -15 -169 -27 l-74 -20 -51 46 c-131 118 -293 197 -492
240 -114 24 -352 24 -465 0 -97 -21 -231 -66 -305 -103 -219 -110 -419 -305
-532 -521 -26 -48 -47 -88 -48 -89 -1 -2 -45 8 -99 22 -262 66 -522 52 -711
-40 -172 -84 -298 -239 -351 -430 -9 -33 -18 -110 -21 -171 -4 -91 -2 -125 16
-193 52 -209 214 -373 417 -425 179 -46 392 4 514 122 l49 47 96 -1 97 -1 32
-74 c147 -338 421 -604 761 -739 169 -67 410 -110 616 -110 333 0 747 94 1083
246 66 29 121 52 123 50 5 -5 -187 -134 -291 -195 -403 -237 -941 -417 -1332
-448 l-83 -6 -146 -190 c-81 -104 -149 -195 -151 -201 -3 -8 79 -46 212 -99
l217 -86 121 50 c275 115 626 303 885 472 288 189 499 357 725 577 366 357
582 675 765 1130 78 195 112 306 137 443 9 50 18 98 20 105 3 9 472 12 2302
12 2286 0 2299 0 2317 -20 36 -40 105 -13 105 42 0 25 -36 58 -63 58 -13 0
-32 -9 -42 -20 -18 -20 -31 -20 -2314 -20 l-2296 0 0 168 c-1 188 -23 327 -78
482 -34 98 -95 224 -126 260 -15 17 -12 8 9 -28z m-2170 -298 c41 -9 108 -29
148 -46 82 -34 212 -116 212 -133 0 -6 -14 -24 -31 -41 -64 -60 -133 -181
-162 -284 -81 -282 -14 -607 171 -834 31 -37 62 -70 69 -73 27 -11 11 -33 -58
-76 -138 -89 -350 -142 -483 -121 l-58 9 -2 85 c-3 134 -52 212 -169 265 -53
24 -66 26 -145 22 -48 -3 -96 -7 -107 -8 -30 -6 -53 90 -54 223 -1 88 3 121
24 185 45 142 136 252 259 314 71 35 36 29 -41 -7 -171 -82 -296 -281 -305
-487 -1 -31 -5 -57 -8 -57 -3 0 -17 26 -32 58 -64 136 -177 272 -300 364 -37
28 -68 53 -68 55 0 2 10 23 21 46 39 76 101 161 173 235 257 267 598 377 946
306z m923 -174 c88 -14 161 -52 226 -117 63 -64 125 -176 137 -250 l7 -43
-135 0 c-132 0 -135 1 -147 24 -24 45 -91 59 -155 32 l-34 -14 -31 87 c-17 48
-53 125 -80 172 -55 95 -56 92 43 108 71 12 102 12 169 1z m-348 -271 c65
-127 96 -240 102 -381 7 -136 14 -128 -96 -98 -81 23 -139 49 -189 87 -18 14
-35 23 -36 22 -2 -2 3 -39 10 -82 20 -111 67 -225 130 -314 51 -69 54 -79 43
-100 -7 -13 -15 -23 -18 -22 -3 0 -30 28 -60 62 -221 256 -234 699 -27 934
l40 46 28 -34 c16 -19 48 -72 73 -120z m-2112 -49 c64 -11 131 -26 149 -35
l33 -15 -30 4 c-16 2 -64 12 -105 21 -116 28 -350 26 -453 -3 -104 -30 -169
-64 -230 -120 -120 -112 -144 -284 -51 -375 26 -26 29 -35 29 -102 1 -64 6
-83 36 -142 26 -52 45 -75 83 -100 26 -18 53 -33 60 -33 6 0 2 6 -9 12 -27 15
-73 57 -96 89 -28 39 -50 137 -43 187 6 41 7 42 45 42 50 0 97 20 129 55 21
22 25 37 25 86 l0 59 33 6 c55 11 153 -2 210 -26 28 -12 52 -24 52 -25 0 -1
-16 -29 -35 -61 -49 -81 -60 -124 -59 -234 1 -118 25 -186 92 -261 l46 -52
-29 -24 c-50 -41 -150 -84 -220 -94 -247 -35 -496 145 -556 401 -17 74 -15
223 5 301 49 195 188 343 390 416 128 46 316 55 499 23z m82 -60 c70 -17 79
-20 72 -26 -3 -3 -51 2 -107 12 -109 18 -241 15 -313 -6 -21 -6 -53 -25 -72
-42 -28 -24 -35 -37 -35 -67 0 -48 21 -67 87 -82 48 -11 170 -2 359 27 36 5
44 0 37 -26 -3 -12 -23 -25 -52 -35 -25 -8 -65 -26 -87 -39 l-42 -24 -63 31
c-58 28 -73 31 -159 31 -112 0 -190 -6 -184 -16 2 -3 -12 -16 -31 -28 -44 -27
-114 -106 -121 -137 -15 -57 -74 25 -74 101 0 161 158 291 408 336 64 12 315
5 377 -10z m2347 -100 c24 -41 68 -41 110 0 l30 30 135 0 136 0 -6 -66 c-6
-86 -61 -200 -116 -243 -76 -61 -172 -76 -270 -44 l-51 16 -1 111 c0 61 -4
134 -8 161 -6 35 -5 52 3 57 17 12 20 10 38 -22z m1368 22 c0 -18 -65 -111
-113 -160 -107 -110 -240 -164 -505 -206 -168 -27 -230 -45 -307 -91 -61 -35
-142 -119 -182 -186 -56 -94 -59 -89 57 -89 309 0 618 108 808 283 71 67 60
32 -14 -41 -215 -210 -522 -327 -814 -309 -176 11 -318 76 -390 178 l-22 30
20 52 c12 29 26 72 33 97 6 25 13 50 15 57 2 9 12 9 38 -2 45 -19 136 -19 209
0 168 44 273 158 307 333 l13 62 423 0 c233 0 424 -4 424 -8z m-3700 -222 c0
-8 -90 -60 -105 -60 -3 0 -5 5 -5 10 0 6 24 22 53 35 60 29 57 28 57 15z m395
-41 c61 -23 129 -59 122 -65 -2 -2 -31 7 -64 21 -34 13 -103 30 -155 36 -51 7
-95 14 -97 15 -1 1 0 8 4 15 11 17 118 5 190 -22z m-935 -22 c0 -49 -19 -81
-60 -102 -33 -17 -100 -20 -100 -5 0 37 115 150 152 150 4 0 8 -19 8 -43z
m355 -110 c-23 -47 -49 -165 -39 -176 1 -1 18 8 36 21 18 14 48 31 66 38 29
11 35 11 43 -1 17 -23 3 -169 -21 -229 -30 -77 -35 -79 -74 -41 -67 65 -100
192 -77 301 14 68 68 167 83 152 7 -7 2 -28 -17 -65z m421 -3 c22 -9 89 -20
154 -24 63 -5 132 -14 152 -20 65 -19 120 -69 157 -143 l33 -68 -42 -45 c-68
-74 -94 -141 -98 -259 -4 -88 -1 -110 23 -180 39 -119 79 -181 174 -275 192
-189 464 -282 831 -282 320 0 632 69 945 209 190 85 427 234 553 348 29 26 56
44 60 40 9 -9 -88 -97 -216 -194 -227 -173 -502 -299 -827 -380 -665 -166
-1218 -64 -1575 289 -132 130 -235 296 -294 476 l-26 80 20 47 c47 105 35 205
-31 281 -30 34 -39 53 -39 80 0 20 2 36 4 36 2 0 21 -7 42 -16z m-187 -358
c17 -71 19 -91 9 -98 -16 -10 -85 -11 -91 0 -3 4 6 39 19 77 13 39 24 83 24
100 0 47 15 17 39 -79z m1003 92 c95 -28 173 -144 166 -247 -3 -42 -5 -46 -28
-43 -87 9 -253 128 -320 230 l-31 47 28 12 c36 16 135 16 185 1z m-241 -125
c79 -121 180 -206 301 -254 29 -11 55 -23 57 -25 3 -2 -11 -20 -29 -39 -43
-45 -32 -45 17 -1 l38 33 80 -14 c216 -39 490 26 664 158 l54 41 66 -30 c147
-67 272 -94 436 -94 204 -1 395 46 580 141 113 58 105 54 105 44 0 -23 -239
-148 -367 -192 -220 -74 -352 -91 -745 -91 -333 0 -436 -8 -527 -42 -148 -55
-183 -187 -78 -292 181 -180 740 -123 1276 130 63 30 116 52 119 50 12 -13
-204 -125 -360 -187 -362 -144 -824 -191 -1173 -118 -218 46 -415 152 -525
285 -83 99 -137 251 -127 356 5 54 48 168 63 168 4 0 4 -35 1 -77 -7 -94 8
-56 18 46 4 39 8 71 10 71 1 0 22 -30 46 -67z m2319 28 c0 -5 -8 -11 -17 -14
-10 -3 -50 -19 -90 -36 -39 -16 -120 -42 -180 -58 -99 -25 -124 -28 -288 -28
-193 0 -238 7 -378 62 -78 30 -94 45 -72 63 12 10 30 5 98 -24 123 -53 209
-69 372 -69 160 0 287 22 445 77 112 39 110 38 110 27z"/>
<path d="M1728 9960 c-294 -50 -499 -236 -572 -520 -38 -147 -31 -392 18 -573
l22 -84 -73 -38 c-282 -144 -502 -401 -603 -703 -131 -392 -43 -849 216 -1122
l33 -35 -19 -64 c-57 -183 -38 -379 52 -529 81 -134 259 -243 428 -261 l55 -6
0 -435 0 -435 -70 -18 c-105 -27 -289 -33 -405 -13 -127 22 -292 79 -387 132
-49 27 -67 34 -48 19 41 -34 174 -99 268 -130 156 -52 250 -67 455 -72 l192
-5 0 -2293 c0 -2279 0 -2292 -20 -2310 -22 -20 -27 -74 -8 -93 21 -21 75 -15
92 10 21 30 20 51 -4 73 -20 18 -20 31 -20 2320 l0 2301 93 18 c144 27 284 71
476 148 202 81 289 123 439 212 214 127 397 271 606 475 380 373 693 811 965
1351 88 173 201 426 201 448 0 14 -160 424 -169 434 -4 4 -94 -60 -201 -142
l-195 -150 -7 -58 c-31 -240 -51 -347 -104 -538 -66 -244 -195 -554 -320 -772
-81 -143 -212 -342 -225 -342 -5 0 8 35 30 78 112 224 209 551 247 832 18 136
18 447 0 565 -52 336 -175 586 -400 811 -126 125 -238 204 -397 279 l-105 50
0 95 1 96 48 55 c221 251 165 648 -120 843 -130 88 -300 123 -465 96z m211
-95 c191 -45 353 -208 392 -392 25 -126 -5 -274 -77 -368 l-36 -46 -49 46
c-77 72 -150 97 -278 96 -88 0 -168 -24 -235 -70 l-44 -31 -22 47 c-28 60 -42
147 -32 203 l7 45 62 5 c51 4 67 10 92 34 35 34 54 82 49 128 l-3 33 71 3 c63
3 77 -1 135 -30 48 -25 72 -46 97 -82 40 -61 42 -46 2 17 -32 50 -101 101
-160 117 -19 5 -63 10 -98 10 -58 0 -65 3 -96 33 -90 90 -259 66 -370 -53 -59
-63 -111 -171 -132 -275 -27 -130 -12 -361 32 -512 4 -14 2 -23 -4 -23 -6 0
-21 44 -34 98 -20 83 -23 123 -23 282 0 174 2 190 27 270 87 270 299 427 583
429 44 0 109 -6 144 -14z m-263 -216 c19 -11 34 -24 34 -28 0 -5 -18 -16 -40
-26 -22 -10 -60 -41 -85 -69 -66 -74 -70 -80 -72 -101 0 -11 -6 -48 -13 -82
-15 -77 -3 -156 36 -243 l26 -59 -21 -35 c-12 -19 -30 -58 -40 -88 -13 -40
-23 -54 -39 -56 -19 -3 -22 1 -22 30 0 18 7 76 15 128 19 126 19 243 0 280
-46 88 -144 50 -179 -70 -21 -70 -21 -237 0 -336 15 -76 13 -109 -5 -63 -36
95 -40 405 -7 522 20 71 65 164 103 212 81 103 219 140 309 84z m53 -150 c-16
-49 -49 -77 -102 -86 -28 -4 -38 -2 -43 10 -9 24 46 97 96 129 43 28 45 28 54
9 5 -12 3 -35 -5 -62z m282 -384 c53 -19 116 -61 130 -87 9 -16 3 -22 -44 -44
-57 -25 -154 -41 -219 -36 -30 3 -38 7 -38 23 0 25 26 77 53 107 l20 22 -34 0
c-45 0 -135 -26 -176 -51 -40 -25 -58 -6 -22 22 72 56 235 77 330 44z m-418
-183 c-32 -57 -43 -70 -43 -54 0 23 51 113 60 107 6 -4 -1 -26 -17 -53z m140
-29 l32 -18 -54 -3 c-61 -4 -73 2 -45 23 25 19 29 18 67 -2z m457 -44 c0 -54
-2 -60 -17 -54 -10 3 -56 16 -102 28 l-84 22 49 13 c27 7 69 21 94 31 25 11
48 19 53 20 4 1 7 -26 7 -60z m-372 -200 c59 -71 189 -91 288 -45 l52 24 86
-29 c448 -150 747 -526 822 -1032 23 -154 15 -463 -16 -627 -70 -378 -192
-694 -368 -955 -103 -154 -262 -336 -262 -301 0 2 30 39 66 82 234 280 424
678 498 1045 117 573 9 1063 -288 1317 -61 52 -210 126 -284 141 -144 30 -276
-2 -377 -91 -42 -37 -47 -39 -77 -29 -98 34 -165 106 -187 199 -6 26 -15 94
-19 152 -5 64 -15 119 -25 140 -9 18 -17 35 -17 37 0 1 18 3 41 3 33 0 45 -6
67 -31z m144 16 c71 -7 93 -19 55 -29 -38 -10 -85 -7 -127 10 -43 17 -55 37
-17 30 12 -3 52 -8 89 -11z m-362 -49 c0 -62 16 -138 44 -207 13 -32 20 -59
15 -59 -18 0 -71 131 -84 209 -15 86 -14 101 11 101 10 0 14 -12 14 -44z
m-278 -89 c73 -116 233 -254 375 -324 l77 -38 -74 -7 c-152 -16 -285 -74 -379
-168 -54 -55 -111 -146 -125 -200 -4 -14 8 2 25 35 113 214 416 328 668 250
52 -16 53 -17 46 -48 -18 -87 -17 -136 3 -204 41 -134 139 -205 281 -205 46 0
79 -5 83 -12 13 -20 8 -209 -7 -276 -22 -95 -61 -186 -112 -262 -24 -38 -46
-68 -47 -68 -1 0 -26 23 -55 51 -115 111 -280 192 -456 226 -99 19 -312 13
-400 -11 -98 -27 -219 -92 -286 -153 -33 -31 -64 -52 -67 -47 -4 6 -22 31 -40
57 -48 68 -98 180 -123 272 -33 120 -33 346 -1 470 72 276 258 519 510 666 37
21 69 39 72 39 3 0 17 -19 32 -43z m1148 -371 c84 -34 187 -112 245 -184 25
-31 68 -102 95 -157 175 -350 172 -925 -7 -1404 -62 -167 -185 -412 -200 -398
-2 3 9 32 26 65 103 204 196 487 236 722 22 128 22 343 0 430 -21 86 -61 156
-108 194 -35 28 -46 31 -107 31 -62 0 -72 -3 -99 -29 -41 -39 -66 -94 -87
-186 -14 -62 -17 -139 -19 -445 -2 -396 -7 -447 -60 -643 -27 -101 -82 -241
-122 -312 -39 -69 -105 -171 -109 -167 -2 1 21 50 50 109 95 189 146 391 146
578 0 165 -28 286 -110 486 -12 28 -11 33 25 80 54 69 119 213 145 318 25 103
30 262 11 364 l-12 63 35 40 c47 51 46 64 -1 17 l-36 -36 -49 99 c-56 115
-133 201 -235 263 -35 21 -61 42 -58 46 2 4 38 10 78 13 41 4 85 11 98 17 23
10 22 10 -6 6 -16 -3 -57 -7 -90 -11 l-60 -6 25 20 c48 39 99 51 200 47 74 -3
109 -9 160 -30z m-406 -165 c98 -68 204 -214 222 -308 l7 -33 -59 0 c-168 0
-279 145 -244 315 6 30 16 55 21 55 6 0 30 -13 53 -29z m-364 -881 c41 -12
104 -37 140 -56 74 -38 190 -129 190 -147 0 -7 -9 -18 -20 -25 -18 -11 -26 -7
-72 29 -97 76 -247 139 -373 154 l-59 8 27 -33 c53 -62 107 -198 107 -267 0
-31 -45 -38 -161 -23 -104 12 -197 37 -285 76 -69 30 -194 110 -194 123 0 14
79 79 135 110 56 32 132 58 203 71 82 15 278 4 362 -20z m460 -402 c88 -190
101 -452 36 -709 -26 -104 -87 -261 -94 -241 -2 7 8 47 22 89 69 207 94 463
63 629 -15 79 -66 224 -89 251 -7 9 -7 17 2 28 21 25 30 18 60 -47z m-1222 33
c42 -29 160 -86 232 -111 36 -13 66 -24 68 -25 1 -1 -2 -15 -8 -31 -7 -16 -12
-49 -12 -74 0 -39 5 -49 36 -76 l36 -31 0 -127 c0 -96 -3 -128 -13 -132 -8 -3
-44 6 -80 19 -255 93 -364 280 -315 543 6 35 16 64 21 64 5 0 21 -8 35 -19z
m1050 -145 c255 -236 171 -833 -165 -1173 -84 -86 -112 -92 -35 -8 143 157
245 405 272 665 13 129 13 230 -1 230 -28 0 -134 -68 -187 -121 -93 -91 -149
-216 -167 -369 -30 -261 -96 -430 -211 -544 -43 -43 -136 -106 -156 -106 -5 0
-8 191 -8 424 l0 423 53 6 c79 10 186 67 245 132 97 106 135 283 87 406 -5 13
4 19 46 29 28 7 77 23 108 35 61 24 61 24 119 -29z m-431 -28 l102 1 18 -47
c43 -113 6 -250 -86 -317 -57 -42 -140 -73 -206 -77 l-50 -3 -3 138 c-3 136
-2 138 22 160 14 12 28 34 32 49 5 23 0 33 -25 57 -48 45 -41 54 32 45 34 -4
108 -7 164 -6z"/>
<path d="M3505 9390 c-11 -17 5 -32 21 -19 7 6 11 15 8 20 -7 12 -21 11 -29
-1z"/>
<path d="M3586 9303 c-3 -4 -6 -15 -6 -25 0 -24 33 -21 38 3 3 17 -21 33 -32
22z"/>
<path d="M3653 9204 c-9 -24 10 -49 38 -49 20 0 24 5 24 30 0 25 -4 30 -28 33
-18 2 -29 -2 -34 -14z"/>
<path d="M3763 9094 c-15 -24 -15 -29 -2 -53 11 -20 22 -26 49 -26 27 0 38 6
49 26 13 24 13 29 -2 53 -12 18 -26 26 -47 26 -21 0 -35 -8 -47 -26z"/>
<path d="M5670 9085 c0 -8 7 -15 15 -15 8 0 15 7 15 15 0 8 -7 15 -15 15 -8 0
-15 -7 -15 -15z"/>
<path d="M5550 9030 c0 -13 7 -20 20 -20 13 0 20 7 20 20 0 13 -7 20 -20 20
-13 0 -20 -7 -20 -20z"/>
<path d="M3916 9009 c-50 -40 -21 -119 44 -119 65 0 94 79 44 119 -15 12 -34
21 -44 21 -10 0 -29 -9 -44 -21z"/>
<path d="M5410 9001 c-12 -23 -5 -47 16 -55 22 -8 54 11 54 32 0 41 -51 57
-70 23z"/>
<path d="M4166 8951 c-68 -45 -93 -150 -50 -209 39 -52 84 -74 139 -70 84 7
145 73 145 156 0 39 -32 93 -70 120 -43 29 -122 30 -164 3z"/>
<path d="M5246 8954 c-9 -8 -16 -26 -16 -39 0 -13 7 -31 16 -39 33 -34 94 -9
94 38 0 47 -62 73 -94 40z"/>
<path d="M5045 8915 c-30 -30 -31 -54 -4 -89 40 -50 119 -24 119 40 0 68 -68
97 -115 49z"/>
<path d="M4490 8888 c-124 -84 -10 -277 126 -212 75 36 91 145 29 204 -37 35
-110 39 -155 8z"/>
<path d="M4781 8884 c-60 -50 -46 -140 26 -170 46 -20 86 -10 118 28 82 98
-46 225 -144 142z"/>
<path d="M2720 8595 c0 -8 7 -15 15 -15 8 0 15 7 15 15 0 8 -7 15 -15 15 -8 0
-15 -7 -15 -15z"/>
<path d="M2813 8524 c-8 -22 18 -37 36 -20 7 8 10 19 7 25 -10 16 -36 13 -43
-5z"/>
<path d="M2908 8459 c-33 -19 -15 -69 24 -69 15 0 38 27 38 44 0 7 -31 36 -38
36 -4 0 -15 -5 -24 -11z"/>
<path d="M3011 8346 c-7 -8 -11 -30 -9 -48 2 -25 9 -35 31 -42 34 -12 58 0 71
37 8 21 6 31 -9 47 -21 23 -67 26 -84 6z"/>
<path d="M3116 8209 c-52 -41 -25 -119 42 -119 66 0 94 69 47 115 -30 30 -54
31 -89 4z"/>
<path d="M3220 8002 c-39 -21 -80 -89 -80 -135 0 -41 36 -105 73 -127 41 -25
118 -26 159 -2 44 26 72 77 72 134 0 111 -123 183 -224 130z"/>
<path d="M3259 7657 c-46 -31 -65 -88 -47 -142 44 -132 238 -99 238 40 0 50
-23 89 -64 109 -47 22 -87 20 -127 -7z"/>
<path d="M3242 7345 c-60 -50 -47 -142 24 -171 47 -20 87 -11 119 28 82 97
-46 225 -143 143z"/>
<path d="M3197 7072 c-39 -43 -7 -122 48 -122 30 0 75 41 75 68 0 11 -9 31
-21 46 -25 32 -77 36 -102 8z"/>
<path d="M3174 6882 c-23 -15 -35 -51 -24 -72 11 -20 40 -40 59 -40 18 0 51
39 51 60 0 40 -55 73 -86 52z"/>
<path d="M3104 6696 c-12 -31 0 -51 31 -51 27 0 30 3 30 30 0 25 -4 30 -28 33
-17 2 -29 -2 -33 -12z"/>
<path d="M3070 6555 c-10 -11 -10 -19 -2 -27 15 -15 44 -2 40 19 -4 23 -22 27
-38 8z"/>
<path d="M3024 6436 c-8 -22 3 -33 18 -18 9 9 9 15 0 24 -9 9 -13 7 -18 -6z"/>
</g>
</svg>
